<?xml version="1.0" standalone="no"?><!DOCTYPE svg PUBLIC "-//W3C//DTD SVG 1.1//EN" "http://www.w3.org/Graphics/SVG/1.1/DTD/svg11.dtd"><svg t="1611627207790" class="icon" viewBox="0 0 1024 1024" version="1.1" xmlns="http://www.w3.org/2000/svg" p-id="1149" xmlns:xlink="http://www.w3.org/1999/xlink" width="64" height="64"><defs><style type="text/css"></style></defs><path d="M897.8 303.7H123.7v-59.6c0-32.9 26.7-59.5 59.5-59.5h655c32.9 0 59.5 26.7 59.5 59.5v59.6z m0 476.4c0 32.9-26.7 59.5-59.5 59.5h-655c-32.9 0-59.5-26.7-59.5-59.5V363.3h774.1v416.8z m-59.6-655h-655c-65.8 0-119.1 53.3-119.1 119.1v535.9c0 65.8 53.3 119.1 119.1 119.1h655c65.8 0 119.1-53.3 119.1-119.1V244.2c0-65.8-53.3-119.1-119.1-119.1z" p-id="1150"></path><path d="M391.7 661c-16.4 0-29.8 13.3-29.8 29.8 0 16.4 13.3 29.8 29.8 29.8H481v59.5c0 16.4 13.3 29.8 29.8 29.8 16.4 0 29.8-13.3 29.8-29.8v-59.5h89.3c16.4 0 29.8-13.3 29.8-29.8 0-16.4-13.3-29.8-29.8-29.8h-89.3v-59.5h89.3c16.4 0 29.8-13.3 29.8-29.8 0-16.4-13.3-29.8-29.8-29.8h-74.1l-1-1 95.3-95.3c11.3-12.3 10.9-31.3-0.9-43.1s-30.8-12.2-43.1-0.9l-95.3 95.3-95.3-95.3c-12.3-11.3-31.3-10.9-43.1 0.9s-12.2 30.8-0.9 43.1l95.3 95.3-1 1h-74.1c-16.4 0-29.8 13.3-29.8 29.8 0 16.4 13.3 29.8 29.8 29.8H481V661h-89.3z" p-id="1151"></path></svg>